<svg xmlns="http://www.w3.org/2000/svg" viewBox="0 0 500 500"><g id="freepik--Floor--inject-68"><polygon points="41.45 453.45 93.59 453.2 145.73 453.12 250 452.95 354.27 453.12 406.41 453.2 458.55 453.45 406.41 453.69 354.27 453.78 250 453.95 145.73 453.78 93.59 453.69 41.45 453.45" style="fill:#263238"></polygon></g><g id="freepik--Device--inject-68"><path d="M441.43,70.6h-169A17.26,17.26,0,0,0,255.28,88V436a17.27,17.27,0,0,0,17.1,17.42H441.43A17.28,17.28,0,0,0,458.55,436V88A17.27,17.27,0,0,0,441.43,70.6Zm6.43,354.67c0,9.16-6.86,16.57-15.32,16.57H281.3c-8.48,0-15.34-7.41-15.34-16.57V101.21c0-18.66,6.86-19.57,15.34-19.57h30.29c1.76,0,3.2,2,3.2,4.48v1.07C314.79,93,318,93,321.88,93h70.06c3.94,0,7.09,0,7.09-5.83V86.12c0-2.48,1.42-4.48,3.21-4.48h30.3c8.46,0,15.32,2.48,15.32,19.57Z" style="fill:#263238"></path><path d="M366.46,85.76H347.35a1.18,1.18,0,0,1-1.18-1.18h0a1.18,1.18,0,0,1,1.18-1.18h19.11a1.18,1.18,0,0,1,1.18,1.18h0A1.18,1.18,0,0,1,366.46,85.76Z" style="fill:#fff"></path><path d="M447.86,101.21V425.27c0,9.16-6.86,16.57-15.32,16.57H281.3c-8.48,0-15.34-7.41-15.34-16.57V101.21c0-18.66,6.86-19.57,15.34-19.57h30.29c1.76,0,3.2,2,3.2,4.48v1.07C314.79,93,318,93,321.88,93h70.06c3.94,0,7.09,0,7.09-5.83V86.12c0-2.48,1.42-4.48,3.21-4.48h30.3C441,81.64,447.86,84.12,447.86,101.21Z" style="fill:#fff"></path><polygon points="284.37 122.84 279 117.81 284.37 112.77 285.2 113.66 280.78 117.81 285.2 121.95 284.37 122.84" style="fill:#c7c7c7"></polygon><path d="M433.77,114.67a1.06,1.06,0,1,1-1-1.06A1.05,1.05,0,0,1,433.77,114.67Z" style="fill:#c7c7c7"></path><path d="M433.77,118.43a1.06,1.06,0,1,1-1-1.06A1.05,1.05,0,0,1,433.77,118.43Z" style="fill:#c7c7c7"></path><path d="M433.77,122.19a1.06,1.06,0,1,1-1-1.06A1.05,1.05,0,0,1,433.77,122.19Z" style="fill:#c7c7c7"></path><g id="freepik--u5zjqx--inject-68"><path d="M306.36,88.92l-.29.29-.16.16a4,4,0,0,0-5.65,0l-.16-.17-.28-.29h0l0,0,.37-.33a4.7,4.7,0,0,1,.85-.54,4.25,4.25,0,0,1,1.14-.38c.19,0,.38,0,.57-.08h.49l.39,0a4.64,4.64,0,0,1,1,.25,4.47,4.47,0,0,1,.7.33,4.57,4.57,0,0,1,.68.47l.3.28Z" style="fill:#c7c7c7"></path><path d="M301.19,90.29c-.15-.15-.31-.3-.46-.46a3.33,3.33,0,0,1,4.71,0c-.16.15-.31.31-.46.46a2.69,2.69,0,0,0-3.79,0Z" style="fill:#c7c7c7"></path><path d="M304.51,90.76l-.46.46a1.35,1.35,0,0,0-1-.41,1.38,1.38,0,0,0-1,.41l-.45-.46A2,2,0,0,1,304.51,90.76Z" style="fill:#c7c7c7"></path><path d="M303.5,91.63a.42.42,0,0,1-.42.42.41.41,0,0,1-.41-.42.41.41,0,0,1,.41-.41A.41.41,0,0,1,303.5,91.63Z" style="fill:#c7c7c7"></path></g><path d="M277.82,89.8A1.21,1.21,0,1,1,279,91,1.21,1.21,0,0,1,277.82,89.8Z" style="fill:#c7c7c7"></path><path d="M281.62,89.8a1.21,1.21,0,1,1,1.2,1.21A1.2,1.2,0,0,1,281.62,89.8Z" style="fill:#c7c7c7"></path><path d="M285.41,89.8A1.21,1.21,0,1,1,286.62,91,1.21,1.21,0,0,1,285.41,89.8Z" style="fill:#c7c7c7"></path><path d="M289.21,89.8A1.21,1.21,0,1,1,290.42,91,1.21,1.21,0,0,1,289.21,89.8Z" style="fill:#c7c7c7"></path><path d="M293,89.8a1.21,1.21,0,1,1,1.2,1.21A1.2,1.2,0,0,1,293,89.8Z" style="fill:#c7c7c7"></path><path d="M434.22,92.44h-9.83V87.88h9.83Zm-9.31-.51h8.8V88.39h-8.8Z" style="fill:#c7c7c7"></path><rect x="425.21" y="88.66" width="6.33" height="3" style="fill:#c7c7c7"></rect><rect x="434.22" y="88.94" width="0.87" height="2.43" style="fill:#c7c7c7"></rect><polygon points="289.13 424.33 288.24 424.33 288.24 428.41 286.58 428.41 286.58 426.33 283.64 426.33 283.64 428.41 281.98 428.41 281.98 424.33 281.09 424.33 285.11 420.18 289.13 424.33" style="fill:#ebebeb"></polygon><rect x="423.42" y="420.18" width="9.69" height="1.38" style="fill:#ebebeb"></rect><rect x="423.42" y="423.6" width="9.69" height="1.39" style="fill:#ebebeb"></rect><rect x="423.42" y="427.03" width="9.69" height="1.39" style="fill:#ebebeb"></rect><polygon points="359.95 424.44 357.19 427.38 354.44 424.44 354.92 423.98 357.19 426.4 359.46 423.98 359.95 424.44" style="fill:#ebebeb"></polygon><path d="M357.19,430.42a5,5,0,1,1,5-5A5,5,0,0,1,357.19,430.42Zm0-9.35a4.35,4.35,0,1,0,4.35,4.34A4.35,4.35,0,0,0,357.19,421.07Z" style="fill:#ebebeb"></path><path d="M345.6,399.19a2.53,2.53,0,1,1-2.53-2.54A2.53,2.53,0,0,1,345.6,399.19Z" style="fill:#dbdbdb"></path><path d="M361,399.19a3.83,3.83,0,1,1-3.83-3.83A3.84,3.84,0,0,1,361,399.19Z" style="fill:#FFC727"></path><path d="M373.83,399.19a2.53,2.53,0,1,1-2.53-2.54A2.53,2.53,0,0,1,373.83,399.19Z" style="fill:#dbdbdb"></path><path d="M433.22,306.44H280.6V236H433.22Zm-151.62-1H432.22V237H281.6Z" style="fill:#ebebeb"></path><rect x="356.41" y="187.8" width="1" height="166.79" transform="translate(-38.32 482.67) rotate(-65.38)" style="fill:#ebebeb"></rect><rect x="273.52" y="270.7" width="166.79" height="1" transform="translate(-80.52 173.27) rotate(-24.61)" style="fill:#ebebeb"></rect><path d="M362.66,382.85H351.38v-11.5h11.28Zm-10.28-1h9.28v-9.5h-9.28Z" style="fill:#ebebeb"></path><rect x="356.52" y="369.75" width="1" height="14.7" transform="translate(-161.91 357.49) rotate(-44.4)" style="fill:#ebebeb"></rect><rect x="349.67" y="376.6" width="14.7" height="1" transform="translate(-162.21 368.64) rotate(-45.63)" style="fill:#ebebeb"></rect><path d="M391,343.05H321.73V320.34H391Zm-68.27-1H390V321.34H322.73Z" style="fill:#ebebeb"></path><rect x="355.87" y="295.88" width="1" height="71.64" transform="translate(-67.72 570.79) rotate(-72.36)" style="fill:#ebebeb"></rect><rect x="320.55" y="331.2" width="71.64" height="1" transform="translate(-83.69 123.44) rotate(-17.62)" style="fill:#ebebeb"></rect><path d="M394.55,198.6h-75.3V123.29h75.3Zm-74.3-1h73.3V124.29h-73.3Z" style="fill:#ebebeb"></path><rect x="356.4" y="108.4" width="1" height="105.08" transform="translate(-9.27 299.5) rotate(-45)" style="fill:#ebebeb"></rect><rect x="304.36" y="160.44" width="105.08" height="1" transform="translate(-9.27 299.51) rotate(-45)" style="fill:#ebebeb"></rect><path d="M290.57,359.58c11.05-.21,22.11-.3,33.17-.38l33.17-.12,33.17.11,16.59.14,16.58.25-16.58.24-16.59.14-33.17.12L323.74,360C312.68,359.88,301.62,359.79,290.57,359.58Z" style="fill:#ebebeb"></path><rect x="339.45" y="212.5" width="34.92" height="2.52" style="fill:#ebebeb"></rect><rect x="333.11" y="217.66" width="47.58" height="2.52" style="fill:#ebebeb"></rect><rect x="278.63" y="234.07" width="151.62" height="69.49" style="fill:#fff"></rect><path d="M430.38,303.68H278.5V233.94H430.38Zm-151.63-.25H430.12V234.19H278.75Z" style="fill:#263238"></path><path d="M290.48,249.59V246a.34.34,0,0,1,.34-.34h2a.34.34,0,0,1,0,.68h-1.66v1.12h1.42a.34.34,0,0,1,.34.34.34.34,0,0,1-.34.34h-1.42v1.12h1.66a.35.35,0,0,1,.33.35.34.34,0,0,1-.33.33h-2A.34.34,0,0,1,290.48,249.59Z" style="fill:#263238"></path><path d="M296.59,248.13v1.47a.32.32,0,0,1-.32.32.33.33,0,0,1-.33-.32v-1.47a.64.64,0,0,0-.63-.61.63.63,0,0,0-.62.63v1.45s0,0,0,0v0a.08.08,0,0,1,0,0v0a.36.36,0,0,1-.31.19h-.06a.33.33,0,0,1-.26-.32v-1.45h0v-.94a.32.32,0,0,1,.32-.33.3.3,0,0,1,.29.18,1.28,1.28,0,0,1,.66-.18,1.25,1.25,0,0,1,1,.42,1.22,1.22,0,0,1,1-.42,1.27,1.27,0,0,1,1.27,1.28v1.45a.33.33,0,0,1-.65,0v-1.45a.63.63,0,0,0-.62-.63A.64.64,0,0,0,296.59,248.13Z" style="fill:#263238"></path><path d="M302.43,248.4v1.2a.32.32,0,0,1-.32.32.33.33,0,0,1-.32-.26,1.33,1.33,0,0,1-.81.26,1.42,1.42,0,0,1-1-.44,1.6,1.6,0,0,1,0-2.16,1.41,1.41,0,0,1,1.85-.19.33.33,0,0,1,.32-.26.32.32,0,0,1,.32.33Zm-.64,0a.88.88,0,0,0-.24-.63.79.79,0,0,0-.57-.25.76.76,0,0,0-.57.25.87.87,0,0,0-.23.63.9.9,0,0,0,.23.63.78.78,0,0,0,.57.24.82.82,0,0,0,.57-.24A.91.91,0,0,0,301.79,248.4Z" style="fill:#263238"></path><path d="M304.3,246.1a.33.33,0,1,1-.66,0V246a.33.33,0,0,1,.66,0Zm0,1.11v2.38a.33.33,0,0,1-.66,0v-2.38a.33.33,0,1,1,.66,0Z" style="fill:#263238"></path><path d="M305.6,245.64a.34.34,0,0,1,.34.34v3.61a.34.34,0,0,1-.34.33.34.34,0,0,1-.34-.33V246A.35.35,0,0,1,305.6,245.64Z" style="fill:#263238"></path><path d="M291.91,275.71h-.75V277a.34.34,0,0,1-.34.33.34.34,0,0,1-.34-.33v-3.61a.34.34,0,0,1,.34-.34h1.09a1.31,1.31,0,1,1,0,2.62Zm-.75-.68h.75a.63.63,0,1,0,0-1.26h-.75Z" style="fill:#263238"></path><path d="M296.56,275.85v1.2a.32.32,0,0,1-.32.32.33.33,0,0,1-.32-.26,1.42,1.42,0,0,1-1.85-.18,1.57,1.57,0,0,1-.42-1.08,1.54,1.54,0,0,1,.42-1.08,1.4,1.4,0,0,1,1-.46,1.43,1.43,0,0,1,.81.27.34.34,0,0,1,.32-.27.32.32,0,0,1,.32.33Zm-.65,0a.91.91,0,0,0-.23-.63.75.75,0,0,0-.57-.25.72.72,0,0,0-.57.25.87.87,0,0,0-.23.63.9.9,0,0,0,.23.63.78.78,0,0,0,.57.24.82.82,0,0,0,.57-.24A1,1,0,0,0,295.91,275.85Z" style="fill:#263238"></path><path d="M297.61,276.5a.31.31,0,0,1,.46-.05,1.18,1.18,0,0,0,.67.27.84.84,0,0,0,.42-.12.26.26,0,0,0,.11-.18.11.11,0,0,0,0-.06.19.19,0,0,0-.08-.08,1.58,1.58,0,0,0-.49-.17h0a1.88,1.88,0,0,1-.54-.16,1.08,1.08,0,0,1-.42-.35.73.73,0,0,1-.1-.39.86.86,0,0,1,.36-.67,1.28,1.28,0,0,1,.75-.23,1.63,1.63,0,0,1,.92.34.35.35,0,0,1,.1.45.33.33,0,0,1-.46.09,1,1,0,0,0-.56-.23.65.65,0,0,0-.37.11c-.08.06-.09.11-.09.14a.07.07,0,0,0,0,.05s0,0,.07.06a1.09,1.09,0,0,0,.44.15h0a2,2,0,0,1,.57.17,1,1,0,0,1,.44.36.87.87,0,0,1,.11.41.88.88,0,0,1-.38.71,1.43,1.43,0,0,1-.8.24,1.75,1.75,0,0,1-1.09-.42A.33.33,0,0,1,297.61,276.5Z" style="fill:#263238"></path><path d="M300.56,276.5a.31.31,0,0,1,.46-.05,1.16,1.16,0,0,0,.67.27.8.8,0,0,0,.41-.12.23.23,0,0,0,.11-.18.11.11,0,0,0,0-.06.19.19,0,0,0-.08-.08,1.68,1.68,0,0,0-.49-.17h0a1.82,1.82,0,0,1-.53-.16,1,1,0,0,1-.42-.35.74.74,0,0,1-.11-.39.86.86,0,0,1,.36-.67,1.34,1.34,0,0,1,.76-.23,1.57,1.57,0,0,1,.91.34.33.33,0,0,1,.1.45.32.32,0,0,1-.45.09,1.07,1.07,0,0,0-.56-.23.63.63,0,0,0-.37.11c-.08.06-.1.11-.1.14a.07.07,0,0,0,0,.05.23.23,0,0,0,.07.06,1.22,1.22,0,0,0,.45.15h0a2.21,2.21,0,0,1,.57.17,1,1,0,0,1,.43.36.78.78,0,0,1,.12.41.89.89,0,0,1-.39.71,1.39,1.39,0,0,1-.79.24,1.7,1.7,0,0,1-1.09-.42A.33.33,0,0,1,300.56,276.5Z" style="fill:#263238"></path><path d="M307.55,274.8l-1,2.38,0,.05h0l0,0h0a.05.05,0,0,1,0,0v0l-.06,0h0l-.05,0h-.14l-.05,0h0a.1.1,0,0,1-.05,0h0s0,0,0,0h0a.05.05,0,0,1,0,0h0l0-.05-.45-1.06-.43,1.06,0,.05h0l0,0h0l0,0-.06,0h0l0,0h-.15l0,0h0a.1.1,0,0,1,0,0h0a.07.07,0,0,1,0,0h0l0,0h0l0-.05-1-2.38a.31.31,0,0,1,.18-.42.3.3,0,0,1,.4.18l.72,1.65.43-1a.33.33,0,0,1,.6,0l.43,1,.72-1.65a.31.31,0,0,1,.41-.18A.32.32,0,0,1,307.55,274.8Z" style="fill:#263238"></path><path d="M309,276.93a1.55,1.55,0,0,1-.42-1.08,1.58,1.58,0,0,1,.42-1.07,1.41,1.41,0,0,1,1.05-.47,1.33,1.33,0,0,1,1,.47,1.5,1.5,0,0,1,.43,1.07,1.47,1.47,0,0,1-.43,1.08,1.36,1.36,0,0,1-1,.46A1.44,1.44,0,0,1,309,276.93Zm.24-1.08a1,1,0,0,0,.22.65.88.88,0,0,0,.59.22.8.8,0,0,0,.56-.22,1,1,0,0,0,0-1.29.86.86,0,0,0-.56-.23.94.94,0,0,0-.59.23A1,1,0,0,0,309.25,275.85Z" style="fill:#263238"></path><path d="M314.31,274.64a.32.32,0,0,1-.32.32.59.59,0,0,0-.37.12.86.86,0,0,0-.28.29,1.78,1.78,0,0,0-.25.52v1.16a.33.33,0,0,1-.34.32.32.32,0,0,1-.32-.32v-2.41a.32.32,0,0,1,.32-.32.33.33,0,0,1,.34.32v0a.5.5,0,0,1,.13-.12,1.26,1.26,0,0,1,.77-.24A.32.32,0,0,1,314.31,274.64Z" style="fill:#263238"></path><path d="M317.73,277a.33.33,0,0,1-.33.33.33.33,0,0,1-.33-.26,1.46,1.46,0,0,1-.83.26,1.53,1.53,0,0,1,0-3.06,1.45,1.45,0,0,1,.82.26v-1.15a.34.34,0,0,1,.67,0v2.42h0ZM316.24,275a.77.77,0,0,0-.57.25.84.84,0,0,0-.25.62.82.82,0,0,0,.25.6.78.78,0,0,0,.57.26.8.8,0,0,0,.58-.26.86.86,0,0,0,.24-.6.87.87,0,0,0-.24-.62A.79.79,0,0,0,316.24,275Z" style="fill:#263238"></path><rect x="289.84" y="254.28" width="129.19" height="10.25" style="fill:#ebebeb"></rect><rect x="289.84" y="281.72" width="129.19" height="10.25" style="fill:#ebebeb"></rect><rect x="320.72" y="319.15" width="68.27" height="21.71" style="fill:#FFC727"></rect><path d="M339.79,333.05v-5.88a.55.55,0,0,1,.54-.55.56.56,0,0,1,.56.55v5.32h2.7a.56.56,0,0,1,0,1.11h-3.26A.55.55,0,0,1,339.79,333.05Z" style="fill:#fff"></path><path d="M350.5,327.49a3.65,3.65,0,0,1,0,5,3.24,3.24,0,0,1-2.38,1.07,3.35,3.35,0,0,1-2.44-1.07,3.7,3.7,0,0,1,0-5,3.32,3.32,0,0,1,2.44-1.07A3.2,3.2,0,0,1,350.5,327.49Zm-.13,2.52a2.63,2.63,0,0,0-.67-1.75,2.17,2.17,0,0,0-3.19,0,2.54,2.54,0,0,0-.68,1.75,2.48,2.48,0,0,0,.68,1.73,2.13,2.13,0,0,0,3.19,0A2.56,2.56,0,0,0,350.37,330Z" style="fill:#fff"></path><path d="M353.17,330a3.63,3.63,0,0,1,3.68-3.6,3.69,3.69,0,0,1,2.27.78.57.57,0,0,1,.11.8.58.58,0,0,1-.81.09,2.65,2.65,0,0,0-1.57-.53,2.47,2.47,0,0,0-1.8.72,2.38,2.38,0,0,0-.74,1.74,2.34,2.34,0,0,0,.74,1.71,2.48,2.48,0,0,0,1.8.73,2.72,2.72,0,0,0,1.36-.38v-1.36h-1.42a.58.58,0,0,1-.57-.57.56.56,0,0,1,.57-.56h2a.56.56,0,0,1,.58.56v2.2a.86.86,0,0,1,0,.17l0,.05h0a.47.47,0,0,1-.19.24,3.68,3.68,0,0,1-2.26.78A3.62,3.62,0,0,1,353.17,330Z" style="fill:#fff"></path><path d="M361.67,327.17a.54.54,0,0,1,.54-.55.56.56,0,0,1,.56.55v5.88a.56.56,0,0,1-.56.55.54.54,0,0,1-.54-.55Z" style="fill:#fff"></path><path d="M365.73,333.05a.54.54,0,1,1-1.08,0v-5.79h0a.54.54,0,0,1,1-.34l3.22,4.45v-4.1a.54.54,0,0,1,.54-.54.55.55,0,0,1,.55.54v5.79a.55.55,0,0,1-.55.55.54.54,0,0,1-.41-.2l-.05-.06-3.19-4.43Z" style="fill:#fff"></path></g><g id="freepik--Character--inject-68"><path d="M208.88,367s-20.19,40.48-20.19,40.52c-1.67,8.36-3,15.72-3.31,19.59a.13.13,0,0,0,0,.06,6.16,6.16,0,0,0,.1,2.71s0,0,0,.06c2.15,2.18,68.58,17.48,71.08,17.23s2-7.38-.11-10-24.93-19.88-24.93-19.88l19.76-40.55Z" style="fill: rgb(255, 196, 192);"></path><path d="M255.58,447.2c-2.49.24-67.92-15.05-70.06-17.23a.13.13,0,0,1-.05-.06,6,6,0,0,1-.1-2.71.11.11,0,0,1,0-.06c.32-3.87,1.64-11.23,3.3-19.6,0,0,2.6-5.19,4.84-9.69l41.9,11.49-3.87,7.94s21.8,17.24,23.92,19.89S258.09,447,255.58,447.2Z" style="fill:#ebebeb"></path><path d="M256.49,446.14c-2.53.19-69.11-16.79-71.24-19-.82-.85,1.09-10.69,3.74-22.53l.08-.37,43.09,10.48-.21.72s22.59,17.9,24.66,20.63S259,446,256.49,446.14Z" style="fill:#263238"></path><path d="M256.39,443.37c-11.15-3.14-56.44-14.74-67.7-17-.09,0-.11.05,0,.07,11,3.36,56.37,14.59,67.68,17.11C256.59,443.6,256.63,443.43,256.39,443.37Z" style="fill:#fff"></path><path d="M235.53,416.45c-4.21-1.95-9.78-2.65-14-.36-.16.09,0,.32.12.31a63.3,63.3,0,0,1,13.68.61A.3.3,0,0,0,235.53,416.45Z" style="fill:#fff"></path><path d="M238.23,419.19c-4.21-1.95-9.78-2.65-14-.37-.16.09,0,.32.12.31a63.94,63.94,0,0,1,13.68.61A.29.29,0,0,0,238.23,419.19Z" style="fill:#fff"></path><path d="M240.93,421.92c-4.21-1.95-9.78-2.65-14-.36-.16.09,0,.31.12.31a63.94,63.94,0,0,1,13.68.6A.29.29,0,0,0,240.93,421.92Z" style="fill:#fff"></path><path d="M258.12,444c1.07.76-.21,4.7-1.15,4.8s-73.46-18.73-74.63-19.32.42-4.9,1.91-4.76S258.12,444,258.12,444Z" style="fill:#FFC727"></path><path d="M198.17,414.47c-4.21-3.65-9.89,2.89-5.67,6.54S202.39,418.12,198.17,414.47Z" style="fill:#fff"></path><path d="M193.66,394.61l48.58,12.25s45.29-81.72,44.28-102.49c-1.4-28.69-35-116.76-35-116.76H211.2s26.73,95.24,27.08,111.27C238.46,307.26,193.66,394.61,193.66,394.61Z" style="fill:#455a64"></path><path d="M244.32,397c-2.59-1-25.71-7.71-43-11.36-.11,0-.14.14,0,.18,5.44,1.92,39.72,10.93,42.94,11.37C244.35,397.22,244.44,397.06,244.32,397Z" style="fill:#263238"></path><path d="M241.63,278.42c-3.2-13.44-6.58-26.85-10.23-40.18s-7.47-26.76-11.7-40q-.78-2.43-1.58-4.84a.2.2,0,0,0-.39.12c3.77,13.16,7.61,26.31,11.19,39.53s7,26.47,10.24,39.78q1.2,4.93,2.36,9.89a90.4,90.4,0,0,1,2.06,10.31,26.75,26.75,0,0,1-.67,9.92,56.85,56.85,0,0,1-3.58,9.23q-8.72,18.92-17.42,37.84c-5.79,12.65-6.74,15.53-12.29,28.29-.69,1.58-1.38,3.16-2.05,4.76,0,.1.11.19.16.09,6.35-12.5,7.33-15.51,13.23-28.23s11.85-25.6,17.74-38.41c2.66-5.78,5.78-11.68,6.18-18.15C245.29,291.66,243.18,284.89,241.63,278.42Z" style="fill:#263238"></path><path d="M243.83,383s1.56,44.56,1.56,44.59c.26,8.53.63,16,1.18,19.84a.13.13,0,0,0,0,.06,5.92,5.92,0,0,0,.71,2.61s0,.05.05.06c2.59,1.64,70.76,1.6,73.14.8s.27-7.64-2.37-9.75-28.76-13.77-28.76-13.77l-2-44.52Z" style="fill: rgb(255, 196, 192);"></path><path d="M245.07,418.49s.32,9.11.32,9.14c.26,8.53.63,16,1.18,19.84a.13.13,0,0,0,0,.06,11.5,11.5,0,0,0,.71,2.61s0,.05.05.06c2.59,1.64,70.76,1.6,73.14.8s.27-7.64-2.37-9.75-28.76-13.77-28.76-13.77l-.2-9.28Z" style="fill:#ebebeb"></path><path d="M320.51,450.91c-2.41.78-71.12-.29-73.71-2-1-.63-1.42-10.65-1.59-22.78v-.38l44.33.2,0,.75s26.12,12.17,28.77,14.34S322.92,450.15,320.51,450.91Z" style="fill:#263238"></path><path d="M319.77,448.24c-11.57-.47-58.32-1.24-69.8-.82-.09,0-.09.06,0,.07,11.47.71,58.21,1.11,69.8.94C320,448.42,320,448.25,319.77,448.24Z" style="fill:#fff"></path><path d="M293.23,426.9c-4.54-.92-10.13-.31-13.66,2.88-.14.13,0,.32.19.28a64,64,0,0,1,13.45-2.59A.29.29,0,0,0,293.23,426.9Z" style="fill:#fff"></path><path d="M296.49,428.93c-4.54-.92-10.13-.31-13.66,2.89-.14.12,0,.31.19.27a64,64,0,0,1,13.45-2.58A.29.29,0,0,0,296.49,428.93Z" style="fill:#fff"></path><path d="M299.75,431c-4.54-.92-10.13-.31-13.66,2.88-.14.13,0,.32.19.27a64.59,64.59,0,0,1,13.45-2.58A.29.29,0,0,0,299.75,431Z" style="fill:#fff"></path><path d="M321.6,448.47c1.22.49.89,4.62,0,4.93s-75.81-1.17-77.08-1.48-.73-4.86.76-5.07S321.6,448.47,321.6,448.47Z" style="fill:#FFC727"></path><path d="M256.43,433.63c-4.94-2.56-8.94,5.11-4,7.69S261.38,436.21,256.43,433.63Z" style="fill:#fff"></path><path d="M251,187.57a.16.16,0,0,1,0,0c-.18.83-10.22,40.53-11.48,41.27-1.41.84,36.49,51.84,41,76.88,2.88,16,9.43,109.36,9.43,109.36H241.63s-4.73-79.27-6.32-105.39c-.61-10.14-38.64-57-42.25-88.24-1.13-9.84,5.94-33.92,5.94-33.92Z" style="fill:#455a64"></path><path d="M240.41,377.33c-.58-13.13-1.1-26.29-2.06-39.41-.54-7.43-1.6-14.62-2.34-22,0-.39-.35-.48-.34-.08C236,329,237.1,342,237.81,355.22s1.37,16.25,2.12,29.38c.42,7.44.78,14.87,1.36,22.3a.09.09,0,0,0,.18,0C241.5,393.7,241,390.51,240.41,377.33Z" style="fill:#263238"></path><path d="M280.53,306.32a70.08,70.08,0,0,0-2-10.27,51.83,51.83,0,0,0-3.92-9.43c-3.29-6.32-7-12.43-10.64-18.57s-7.38-12.4-11.19-18.52q-3.21-5.16-6.46-10.3c-2.19-3.47-4.52-6.86-6.79-10.27a.13.13,0,0,0-.22.13c3.7,6.19,7.36,12.41,11.06,18.61s7.34,12.42,11,18.64,7.18,12.25,10.61,18.47A64.1,64.1,0,0,1,276.3,294a56,56,0,0,1,2.44,10.15c1.29,8,2.34,16.11,4,24.08,0,.1.18.07.17,0C282.37,320.91,281.5,313.59,280.53,306.32Z" style="fill:#263238"></path><path d="M285.68,406.76c-2.76-.36-23.82-1.08-41.43-.33-.12,0-.11.17,0,.18,5.74.51,38.18.73,41.41.36C285.77,407,285.81,406.78,285.68,406.76Z" style="fill:#263238"></path><path d="M245.81,226.09a91,91,0,0,0-14.26,6.64.16.16,0,0,0,.14.29c4.8-2.06,9.7-4,14.38-6.36A.31.31,0,0,0,245.81,226.09Z" style="fill:#263238"></path><path d="M247.26,193.19c0-.17-.31-.2-.31,0a159.78,159.78,0,0,1-.8,16c-.22,2.48-2.21,16.15-6.5,15.15-.72-.16-1.09-.87-1.2-2a16.79,16.79,0,0,1,.57-4.2c.47-2.86.86-5.73,1.1-8.62a78.73,78.73,0,0,0-.17-16.17.14.14,0,0,0-.28,0,148.83,148.83,0,0,1-1.3,22.33c-.54,3.55-2.33,8.91,1.39,9.46s6.24-8.42,6.7-10.87A81.92,81.92,0,0,0,247.26,193.19Z" style="fill:#263238"></path><path d="M239.76,224.73a21.92,21.92,0,0,0-1,2.83,6.51,6.51,0,0,0-.41,2.33.17.17,0,0,0,.3.07,8.26,8.26,0,0,0,1-2.27c.32-.88.67-1.75,1-2.63A.48.48,0,0,0,239.76,224.73Z" style="fill:#263238"></path><path d="M241.78,322.39c-.45-6.74-.43-13.87-3.3-20.13a67.67,67.67,0,0,0-5.25-8.76q-2.94-4.49-5.8-9c-7.63-12.11-14.91-24.46-21.58-37.13-3.21-6.09-6.17-12.39-7.78-19.12a60.92,60.92,0,0,1-.88-21.58c.22-1.79.47-3.57.77-5.35,0-.13-.18-.18-.2,0a70.84,70.84,0,0,0-1.59,20.88,58.15,58.15,0,0,0,5.57,19.24c2.94,6.37,6.44,12.49,9.88,18.59q5.34,9.44,11,18.68c3.76,6.13,7.71,12.13,11.62,18.16a34.63,34.63,0,0,1,4.62,9.29,50,50,0,0,1,1.48,10.54c1,14.92,4.75,64.54,6.08,79.39l.51,5.65c0,.17.27.17.27,0C246.61,386.76,242.76,337.27,241.78,322.39Z" style="fill:#263238"></path><path d="M218.58,200.62c0-.1-.17-.07-.18,0-.13,4.15,0,8.43-1.61,12.34-1.47,3.59-4.4,6.11-7.69,8a61,61,0,0,1-5.91,2.9c-.14.06-.08.29.08.24,3.82-1.22,7.7-2.53,10.88-5.08,3.4-2.72,4.88-6.68,5-11A36.1,36.1,0,0,0,218.58,200.62Z" style="fill:#263238"></path><rect x="303.68" y="121.3" width="74.3" height="74.3" transform="translate(690.92 295.25) rotate(176.41)" style="fill:#fff"></rect><path d="M306,198v-.12l-4.67-74.29h.13l74.28-4.66V119l4.66,74.28h-.12Zm-4.4-74.17,4.64,73.9,73.9-4.63-4.63-73.91Z" style="fill:#263238"></path><rect x="307.32" y="124.94" width="67.03" height="67.03" transform="translate(690.92 295.25) rotate(176.41)" style="fill:#FFC727"></rect><path d="M317.06,142.39a6.33,6.33,0,1,0,4.65-5.27A6.33,6.33,0,0,0,317.06,142.39Z" style="opacity:0.1"></path><polygon points="326.94 175.47 375.29 172.44 349.42 146.85 326.94 175.47" style="opacity:0.1"></polygon><polygon points="308.39 176.64 348.31 174.13 327.24 157.73 308.39 176.64" style="fill:#FFC727"></polygon><g style="opacity:0.2"><polygon points="308.39 176.64 348.31 174.13 327.24 157.73 308.39 176.64"></polygon></g><rect x="308.87" y="174.52" width="67.03" height="17.4" transform="translate(-10.8 21.8) rotate(-3.59)" style="fill:#FFC727"></rect><rect x="308.87" y="174.52" width="67.03" height="17.4" transform="translate(-10.8 21.8) rotate(-3.59)" style="opacity:0.2"></rect><path d="M196,192c.12.18,59.29,7.77,59.92,7.22a40.54,40.54,0,0,0,.72-5s4.5-4.3,3.38-12.23c-2.37-16.78-8.8-52.19-11.61-56-2.46-3.3-9.91-5.68-15-3.53-10.65,4.51-31.64,44.41-36.81,53.83-2.55,4.65.66,8.23.94,10.61A44.91,44.91,0,0,0,196,192Z" style="fill:#FFC727"></path><path d="M255.29,194.82c-1.84-.32-3.71-.45-5.56-.7s-3.52-.55-5.28-.78c-3.63-.46-7.25-.89-10.87-1.35-7.25-.92-14.49-1.9-21.73-2.86l-6.06-.82c-2.11-.29-4.23-.45-6.34-.73a.08.08,0,0,0,0,.16c1.84.32,3.66.76,5.51,1.06l5.28.83q5.41.83,10.84,1.57,10.86,1.5,21.74,2.73c2,.23,4.07.38,6.11.53s4.23.49,6.35.58C255.39,195.05,255.44,194.84,255.29,194.82Z" style="fill:#263238"></path><path d="M244.94,136.13c-3.61-.33-8.24-8-9.12-13,0-.33,1.39-3.19,3-6.73,1-2.16,2-4.58,2.74-6.86l13.12,8.26a38.11,38.11,0,0,0-4.31,8.29,5.08,5.08,0,0,0-.22,1,1.22,1.22,0,0,1,0,.17C249.78,129.13,248.44,136.45,244.94,136.13Z" style="fill: rgb(255, 196, 192);"></path><path d="M250.12,127.1s0,.09,0,.15a9.9,9.9,0,0,1-1.5-.4c-8.2-3-6.76-13.74-6.18-16.71l3.28,2.06,9,5.65a37.92,37.92,0,0,0-4.31,8.28A5,5,0,0,0,250.12,127.1Z" style="fill:#263238"></path><path d="M245.1,94.83c-3,4.7-4.51,20.32-1.79,24.67,3.94,6.3,12.49,9.21,18.38,4,5.7-5,7.27-25.45,4-29.61C261,87.74,249.57,87.9,245.1,94.83Z" style="fill: rgb(255, 196, 192);"></path><path d="M257,108.61s-.09,0-.09.09c-.07,1-.33,2.25-1.32,2.5,0,0,0,.06,0,.06C256.77,111.22,257.1,109.62,257,108.61Z" style="fill:#263238"></path><path d="M256.17,107.42c-1.68-.3-2.15,3.08-.6,3.36S257.58,107.67,256.17,107.42Z" style="fill:#263238"></path><path d="M263,109.25s.08.06.07.1c-.18,1-.21,2.27.69,2.75a0,0,0,1,1,0,.05C262.57,111.83,262.63,110.21,263,109.25Z" style="fill:#263238"></path><path d="M264.05,108.28c1.7.11,1.36,3.51-.21,3.41S262.63,108.19,264.05,108.28Z" style="fill:#263238"></path><path d="M255.1,105.06a12.84,12.84,0,0,0,1.38-.24,2.28,2.28,0,0,0,1.36-.51.71.71,0,0,0,0-.88,1.81,1.81,0,0,0-1.75-.49,2.68,2.68,0,0,0-1.68.87A.77.77,0,0,0,255.1,105.06Z" style="fill:#263238"></path><path d="M265.75,105.62a12.21,12.21,0,0,1-1.3-.53,2.24,2.24,0,0,1-1.21-.8.72.72,0,0,1,.16-.87,1.8,1.8,0,0,1,1.81-.08,2.63,2.63,0,0,1,1.45,1.21A.77.77,0,0,1,265.75,105.62Z" style="fill:#263238"></path><path d="M254.33,117.74c.21.28.42.65.79.74a2.85,2.85,0,0,0,1.16-.11s.07,0,0,.06a1.42,1.42,0,0,1-1.41.38,1.12,1.12,0,0,1-.69-1C254.21,117.71,254.29,117.7,254.33,117.74Z" style="fill:#263238"></path><path d="M255.86,114.76a3.6,3.6,0,0,0,2.16,1.92,4.59,4.59,0,0,0,1.28.23,1,1,0,0,0,.24,0h.24a.26.26,0,0,0,.24-.21h0a.31.31,0,0,0,0-.1h0v-.09c.13-.81.23-2,.23-2,.27.19,1.68,1.07,1.71.65a54.43,54.43,0,0,0,.13-11,.1.1,0,0,0-.2,0c-.4,3.36-.21,6.78-.56,10.17a6.1,6.1,0,0,0-1.61-.75c-.12,0-.13,2.4-.22,2.75l0,0a5,5,0,0,1-3.53-1.66C255.91,114.61,255.81,114.67,255.86,114.76Z" style="fill:#263238"></path><path d="M242,108.69c2.88-.15,6.3-8.9,6.3-8.9s-.89,3.84-.15,3.91,4.87-4.48,6-8.15a30.26,30.26,0,0,0,6.09,4.89c3.19,1.79,7,2.42,7.16,1.84.39-1.73-.16-6.61-2.15-8.74a12.55,12.55,0,0,0-11.83-4.25c-6.07.87-8.35,4.13-9.8,6.73S240.91,108.75,242,108.69Z" style="fill:#263238"></path><path d="M253.87,113.33a4.45,4.45,0,1,1,5.64-4.19h0a4.46,4.46,0,0,1-4.54,4.35A5,5,0,0,1,253.87,113.33Zm2.22-8a3.7,3.7,0,0,0-.95-.14,3.85,3.85,0,1,0,.95.14Z" style="fill:#FFC727"></path><path d="M264,114.84c-1.64-.46-2.67-2.55-2.31-4.84a5.35,5.35,0,0,1,1.4-2.93,2.77,2.77,0,0,1,4.69.72,5.33,5.33,0,0,1,.45,3.22c-.37,2.42-2.15,4.17-3.95,3.89Zm1.77-8.1-.22,0a2.34,2.34,0,0,0-2,.79,4.67,4.67,0,0,0-1.24,2.6c-.33,2.1.61,4,2.09,4.22s3-1.29,3.28-3.39a4.66,4.66,0,0,0-.4-2.85A2.42,2.42,0,0,0,265.74,106.74Z" style="fill:#FFC727"></path><path d="M259.28,109.62l-.31-.51c.76-.45,2.41-1,3.31.35l-.49.33C261,108.61,259.35,109.58,259.28,109.62Z" style="fill:#FFC727"></path><path d="M239.52,107.72l-.48-.35c.17-.23,1.64-2.19,3-2.2s9,2,9.35,2l-.14.57c-2.23-.56-8.23-2-9.2-2S239.92,107.18,239.52,107.72Z" style="fill:#FFC727"></path><path d="M244.85,107.84s-2.11-5.71-4.62-5.08-1.8,8.29.53,9.92a2.7,2.7,0,0,0,3.87-.49Z" style="fill: rgb(255, 196, 192);"></path><path d="M240.49,105a0,0,0,0,0,0,.06c1.61,1.21,2.12,3.13,2.33,5a1.48,1.48,0,0,0-2-1c-.06,0,0,.1,0,.11a1.65,1.65,0,0,1,1.62,1,7.81,7.81,0,0,1,.48,1.65c0,.19.35.18.34,0v0C243.84,109.51,242.9,105.83,240.49,105Z" style="fill:#263238"></path><path d="M261,90.22a22.12,22.12,0,0,0-5.63-3.14c-2.27-.82-9.76-1.9-11.85-.81s-4.11,7.91-4.39,8.91-1.19,7.24.7,9.22,4.43-8.4,8.71-11.07S261,90.22,261,90.22Z" style="fill:#FFC727"></path><path d="M261,90.22s-8.18.44-12.46,3.11-6.82,13-8.71,11.07c-.83-.87-1.09-2-1.13-3.67,1.14-2.94,3.43-7.39,6.7-10.09,3.06-2.53,7.5-3.17,12-2.68A25.22,25.22,0,0,1,261,90.22Z" style="opacity:0.1"></path><path d="M239.06,110.72c.82-2.73,5.31-9.53,9.22-13.13s13.18-4.14,14.38-3.8c2.92.83,3.72,1.95,4.25,1.79s-2-3.06-2.74-3.75-2.69-2.35-4-2.61-9.39-1.24-13,1.49-9.83,11.29-9.62,13.88c.05.63.74,1.17.8,2,.08,1.16,0,2.46.19,3.29C238.65,110.6,239,111,239.06,110.72Z" style="fill:#FFC727"></path><path d="M249.39,95.83a14.65,14.65,0,0,1-1.6-1.84,10.54,10.54,0,0,1-1.25-2.12c0-.06-.11,0-.09,0a8.05,8.05,0,0,0,1.05,2.31A6.66,6.66,0,0,0,249.3,96C249.37,96,249.46,95.89,249.39,95.83Z" style="fill:#263238"></path><path d="M239.66,107.94c0-.22-.13-.42-.18-.64a3.07,3.07,0,0,1-.1-.74,6.74,6.74,0,0,0,0-1.42,5.24,5.24,0,0,0-.44-1.07,1.92,1.92,0,0,1-.3-1.25c0-.06-.08-.08-.09,0a4.82,4.82,0,0,0,.45,2.35,8.71,8.71,0,0,1,.06,1.53,2.23,2.23,0,0,0,.47,1.32C239.56,108.05,239.67,108,239.66,107.94Z" style="fill:#263238"></path><path d="M241.29,105.15a9.69,9.69,0,0,1-.57-1.11,9.5,9.5,0,0,1-.37-1.18c-.09-.39-.16-.78-.25-1.18s-.26-.92-.34-1.39c0-.06-.1,0-.09,0,.08.48.08,1,.15,1.48a9,9,0,0,0,.28,1.25,6.52,6.52,0,0,0,.43,1.14,3,3,0,0,0,.72,1A0,0,0,0,0,241.29,105.15Z" style="fill:#263238"></path><path d="M242.9,102.66a8.12,8.12,0,0,1-1.13-2c-.26-.72-.48-1.45-.7-2.18,0,0-.1,0-.09,0a9.59,9.59,0,0,0,.49,2.32,4.37,4.37,0,0,0,.51,1,5.69,5.69,0,0,0,.85.92S242.94,102.71,242.9,102.66Z" style="fill:#263238"></path><path d="M244.58,100.31a2.75,2.75,0,0,1-.57-.91c-.17-.36-.33-.73-.48-1.1s-.3-.72-.44-1.08a2.61,2.61,0,0,1-.27-1.13s-.09-.06-.1,0a3,3,0,0,0,.08,1.16,7.64,7.64,0,0,0,.39,1.23,7.92,7.92,0,0,0,.56,1.13,1.86,1.86,0,0,0,.75.82A.07.07,0,0,0,244.58,100.31Z" style="fill:#263238"></path><path d="M246.11,97.19c-.2-.31-.4-.62-.57-.94s-.34-.66-.49-1-.33-.7-.47-1.06c0-.06-.11,0-.09,0a7.34,7.34,0,0,0,.28,1.12,7.51,7.51,0,0,0,.47,1,8.78,8.78,0,0,0,.59,1,3.16,3.16,0,0,0,.76.83.07.07,0,0,0,.1-.08A6,6,0,0,0,246.11,97.19Z" style="fill:#263238"></path><path d="M251.87,94.73a12,12,0,0,0-.62-1.18,12.54,12.54,0,0,0-.79-1.12,12,12,0,0,0-1.83-1.94s-.1,0-.07.06c1.06,1.42,2.18,2.8,3.23,4.22C251.83,94.82,251.9,94.78,251.87,94.73Z" style="fill:#263238"></path><path d="M254.08,92.72a5.73,5.73,0,0,0-.74-1.1,13.11,13.11,0,0,0-2.08-1.86s-.11,0-.07.07c.62.64,1.24,1.27,1.82,1.94.28.34.56.68.81,1s.4.77.63,1.14a0,0,0,0,0,.07,0A3.16,3.16,0,0,0,254.08,92.72Z" style="fill:#263238"></path><path d="M256.64,92.15a7.26,7.26,0,0,0-.67-1.09,7.42,7.42,0,0,0-1.76-1.64.05.05,0,0,0-.06.08,13.81,13.81,0,0,1,1.6,1.81c.25.33.47.67.7,1a9.93,9.93,0,0,0,.65,1s.06,0,0,0A6.29,6.29,0,0,0,256.64,92.15Z" style="fill:#263238"></path><path d="M258.62,91.14c-.24-.3-.49-.59-.75-.88a3.81,3.81,0,0,0-.84-.76.05.05,0,0,0-.06.08c.47.58.92,1.17,1.38,1.76a9.86,9.86,0,0,1,1,1.82s.06,0,.05,0A3.63,3.63,0,0,0,258.62,91.14Z" style="fill:#263238"></path><path d="M260.8,91.16a5.94,5.94,0,0,0-1.59-1.57s-.1,0-.06.08a7.08,7.08,0,0,1,1.4,1.64,10.13,10.13,0,0,1,1,2,0,0,0,0,0,.06,0A4.92,4.92,0,0,0,260.8,91.16Z" style="fill:#263238"></path><path d="M263.25,93a2.54,2.54,0,0,0-.14-.47,4.73,4.73,0,0,0-.45-.9,10.76,10.76,0,0,0-1.3-1.56s-.11,0-.07.07a8.27,8.27,0,0,1,1.2,1.57,9,9,0,0,1,.43.88c.06.14.11.29.16.44a2.15,2.15,0,0,0,.14.45s.08,0,.08,0A1.08,1.08,0,0,0,263.25,93Z" style="fill:#263238"></path><path d="M264.89,93.54a6.38,6.38,0,0,0-.37-.74,6.28,6.28,0,0,0-.45-.69c-.17-.22-.35-.44-.51-.67,0,0-.12,0-.07.06a5.3,5.3,0,0,1,.45.71l.39.7.39.7a6.23,6.23,0,0,0,.39.72s.07,0,.07,0A3.5,3.5,0,0,0,264.89,93.54Z" style="fill:#263238"></path><path d="M228.18,144.05c5,16.78,19,45.48,24.14,49,4.56,3.13,26.46.28,36.05-1.79,3.59-.78-3.78-28.14-7.6-27.24-4.59,1.09-18.25,3.82-19.22,3s-14.25-18-23.73-28.15C229.24,129.74,226.29,137.71,228.18,144.05Z" style="fill: rgb(255, 196, 192);"></path><path d="M278.8,166.28s7.25-8.18,12.39-11.3A38.67,38.67,0,0,1,309,149.91c6.74-.27,23.23,3.74,22.9,8.69-.3,4.48-16.94-.47-16.94-.47s17.8,2.25,16.45,7.58S311,164.19,311,164.19s18.24,2.72,16,8c-1.7,4-19.26-1.25-19.26-1.25s15.67,2.45,14.09,6.62c-1.75,4.62-18.25.81-18.25.81-5.81,9.94-12.63,12.29-17.69,13.39C284.68,192,278.8,166.28,278.8,166.28Z" style="fill: rgb(255, 196, 192);"></path><path d="M308.81,157c2.1.19,4.23.37,6.31.74s4.14.82,6.17,1.39A36.79,36.79,0,0,1,329,162c-4.5-1.94-11.92-3.4-14-3.77s-4.13-.85-6.2-1.23C308.74,157,308.76,157,308.81,157Z" style="fill:#263238"></path><path d="M307.32,164.44c2.68.35,5.34.61,8,1.08s5.11,1.15,7.72,1.81c.2,0,.1.14-.1.1-2.63-.55-5.1-.86-7.74-1.37s-5.25-1.14-7.89-1.56C307.27,164.49,307.28,164.43,307.32,164.44Z" style="fill:#263238"></path><path d="M304.89,170.62a60.28,60.28,0,0,1,12.1,2.6c.2.06.07.16-.14.11-4-.94-7.14-1.7-12-2.57C304.81,170.75,304.81,170.61,304.89,170.62Z" style="fill:#263238"></path><path d="M286.18,196.13l-6.37-32.72-17.76,2.79c-6.78-8.16-20.35-24.47-25.88-29.4-6.5-5.79-10.94-1.66-8.71,6.92,5.09,19.62,20.57,48.6,24.76,51.44C258.23,199.24,286.18,196.13,286.18,196.13Z" style="fill:#FFC727"></path><path d="M280.06,193.13c-.77-1.94-2.57-10.39-3-12.49s-1.85-10.62-2.28-12.79c0-.12.14-.18.17-.06.46,2.13,2.55,10.54,3,12.65s2.14,10.54,2.22,12.66A.06.06,0,0,1,280.06,193.13Z" style="fill:#263238"></path><path d="M274.2,197.06q-4.36.21-8.74.18a70.89,70.89,0,0,1-8.73-.52,13.94,13.94,0,0,1-4.28-1.14,12.86,12.86,0,0,1-3.12-3.17,67.41,67.41,0,0,1-4.64-7.44c-2.83-5.11-5.28-10.4-7.68-15.72s-4.57-10.71-6.62-16.17q3.53,8,7.2,15.91c2.44,5.29,5,10.52,7.71,15.64a76.58,76.58,0,0,0,4.5,7.44,12.25,12.25,0,0,0,2.88,3.11,13.68,13.68,0,0,0,4.11,1.14A111.14,111.14,0,0,0,274.2,197.06Z" style="fill:#263238"></path><path d="M232.25,157.71a8.51,8.51,0,0,1-1.05-1.28,4.92,4.92,0,0,1-.73-1.49c.14.24.31.45.47.68l.47.67A13.26,13.26,0,0,1,232.25,157.71Z" style="fill:#263238"></path><path d="M247.2,148.91c2.36,2.45,4.51,5.1,6.72,7.68s4.35,5.22,6.61,7.75l.85.93c.15.15.29.31.44.45l.22.19s0,0,0,0h.12c.76,0,1.65-.17,2.48-.28l5-.76,10.08-1.53h0v0l.14.83-.18-.83,0,0c-3.33.68-6.67,1.3-10,1.89q-2.51.44-5,.81a25.3,25.3,0,0,1-2.58.31,1.5,1.5,0,0,1-.2,0,.86.86,0,0,1-.22-.12l-.26-.23-.46-.46c-.3-.31-.59-.62-.87-.94-2.24-2.57-4.4-5.2-6.53-7.84l-3.2-4C249.37,151.53,248.35,150.16,247.2,148.91Z" style="fill:#263238"></path><path d="M248.45,149.21a8.92,8.92,0,0,1,.9,1.39,5.08,5.08,0,0,1,.56,1.57c-.12-.25-.26-.49-.39-.73l-.39-.72A13.65,13.65,0,0,1,248.45,149.21Z" style="fill:#263238"></path></g><g id="freepik--Plant--inject-68"><path d="M106.26,363C93.89,379.71,81,399.15,77.86,420.15c0,.32.47.43.54.11a127,127,0,0,1,5.47-16.82c8.13-2.23,16.11-4.07,20.38-12.14,4.36-8.3,3.8-19.11,3-28.15C107.17,362.67,106.51,362.64,106.26,363Z" style="fill:#FFC727"></path><path d="M84,403.29c5.55-12.47,12.68-25,21.75-35.24.06-.07.16,0,.1.1C99.91,375.45,95.4,383.4,91,391.49c4.09-4.15,8.58-7.88,12.46-12.29.08-.08.2,0,.12.13-3.85,4.62-8,9.64-13.07,13.06-1.35,2.48-2.7,5-4.08,7.46l1-.52c.06,0,.11.06.05.09-.38.19-.76.4-1.15.56-.65,1.18-1.3,2.36-2,3.54C84.24,403.78,83.88,403.55,84,403.29Z" style="fill:#263238"></path><path d="M88.13,398.94a73.61,73.61,0,0,0,9.49-6.34c.08-.07.2,0,.12.12a50.16,50.16,0,0,1-9.48,6.45C88.11,399.25,88,399,88.13,398.94Z" style="fill:#263238"></path><path d="M76.43,417c0,.26.46.25.45,0,.06-6.91,0-13.86.11-20.81,1.77-3.58,5.58-5.56,8.22-8.42a36.47,36.47,0,0,0,4.93-6.87,49.31,49.31,0,0,0,5.73-19.08c.73-7.4-2.08-31.82-5.2-31-1.62.44-6.85,12.53-8.24,16.53a115.67,115.67,0,0,0-4.92,20.27C75,383.94,75.19,400.65,76.43,417Z" style="fill:#FFC727"></path><path d="M76.38,387.19l0,0c.38-8.76,2.35-17.59,4.2-26.08,2-9.15,4.31-17.76,9-25.91a.14.14,0,0,1,.24.13,96.79,96.79,0,0,0-7.25,19.89c.32-.49.7-1,1-1.42.13-.19.43,0,.3.17A12.19,12.19,0,0,1,82.47,356s0,0-.06,0c-1.62,6.53-2.78,13.22-3.78,19.89.08-.09.15-.18.23-.26s.13,0,.1.08c-.13.22-.26.44-.4.66-.5,3.39-1,6.76-1.43,10.11,6-5.15,11.17-11.22,14.08-18.7,0,0,.07,0,.05,0-2.84,7.76-7.33,14.66-14.23,19.37-.12.9-.25,1.81-.38,2.7,0,.19-.32.14-.32,0,0-.8,0-1.6.07-2.4A.18.18,0,0,1,76.38,387.19Z" style="fill:#263238"></path><path d="M79.22,374.51c4.6-6.87,8.91-13.55,12.28-21.15,0-.08.18,0,.15.07-2.84,7.55-6.82,15.2-12.2,21.26C79.34,374.81,79.12,374.65,79.22,374.51Z" style="fill:#263238"></path><path d="M85.34,351.67c1.91-3.38,3.92-6.67,5.71-10.11a.09.09,0,0,1,.15.08,52.54,52.54,0,0,1-5.57,10.2C85.51,352,85.23,351.86,85.34,351.67Z" style="fill:#263238"></path><path d="M84.59,353.13a0,0,0,0,1,0,.06S84.56,353.13,84.59,353.13Z" style="fill:#263238"></path><path d="M71.75,397a70.89,70.89,0,0,1-1.62,13.63c.07.49.14,1,.21,1.49A64.89,64.89,0,0,0,72.78,397a.46.46,0,0,0,0-.47v0a100.84,100.84,0,0,0-1.52-20.58c-2.15-12.71-6.83-24.91-15.69-34.44a.64.64,0,0,0-1,.2c-3.58,9.1-2.33,20,.72,29a53.12,53.12,0,0,0,7,13.79C65.4,388.74,69.28,392.36,71.75,397Z" style="fill:#FFC727"></path><path d="M56.64,345.71c8.4,13.64,14.24,29.8,15,45.91,0,.29-.47.36-.51.07-.2-1.45-.42-2.88-.65-4.31h0c-3.48-3.32-7.05-6.84-9.54-11,0-.07.06-.16.12-.09a116.41,116.41,0,0,0,9.26,10.08c-.6-3.56-1.31-7.07-2.16-10.52l-.66-.78c-.15-.17.1-.42.25-.25l.2.22a121.93,121.93,0,0,0-4.39-13.95c-2.14-2.55-4.53-4.75-6.09-7.82a.07.07,0,1,1,.11-.07,62.74,62.74,0,0,0,3.89,5.16c.56.65,1.18,1.25,1.77,1.89a106.86,106.86,0,0,0-6.88-14.34A.19.19,0,0,1,56.64,345.71Z" style="fill:#263238"></path><path d="M58.34,362.53c2.71,3.66,5.81,7.14,8.33,10.92.07.11-.09.22-.18.14-3.24-3-6-7.2-8.34-10.95C58.08,362.52,58.26,362.42,58.34,362.53Z" style="fill:#263238"></path><path d="M67.05,374.3l.12.11c.08.08,0,.21-.13.13l-.11-.12A.08.08,0,0,1,67.05,374.3Z" style="fill:#263238"></path><path d="M43.47,371.92a41.93,41.93,0,0,0,8.87,20.81,22,22,0,0,0,7.19,5.61c3.11,1.54,6.37,3.31,9.59,4.58A62.75,62.75,0,0,1,72.52,415c.11-.35.21-.71.31-1.07C70.77,396.15,59.27,381,44.57,371.22A.72.72,0,0,0,43.47,371.92Z" style="fill:#FFC727"></path><path d="M48.55,377.17c-.1-.09,0-.28.15-.19a60.17,60.17,0,0,1,18.74,23.09c.1.24-.23.45-.37.21-.68-1.2-1.38-2.36-2.09-3.51h0c-3.35-.63-6.53-3-9-5.23-.07-.06,0-.16.1-.1a20.51,20.51,0,0,0,4.24,3c1.37.7,2.84,1.13,4.27,1.69-1.25-2-2.54-3.87-3.9-5.7a39.08,39.08,0,0,1-10.08-5.67c-.1-.07,0-.23.09-.16a102,102,0,0,0,9.38,5,84.61,84.61,0,0,0-6.62-7.72c-1.14-.6-2.3-1.21-3.4-1.85-.09,0,0-.21.07-.17a11.9,11.9,0,0,1,2.61,1.28C51.38,379.79,50,378.46,48.55,377.17Z" style="fill:#263238"></path><path d="M48.86,383.3a3.93,3.93,0,0,1,.57.41.06.06,0,0,1-.07.09,4.24,4.24,0,0,1-.59-.33C48.67,383.4,48.76,383.24,48.86,383.3Z" style="fill:#263238"></path><polygon points="95.78 453.45 55.49 453.45 58.74 416.76 59.46 408.67 91.81 408.67 92.53 416.76 95.78 453.45" style="fill:#455a64"></polygon><polygon points="92.53 416.76 58.74 416.76 59.46 408.67 91.81 408.67 92.53 416.76" style="fill:#263238"></polygon><rect x="57.53" y="403.01" width="36.21" height="8.01" style="fill:#455a64"></rect></g></svg>